# xmcd
# 
# Track frame offsets:
#     150
#     12580
#     25332
#     38112
#     53072
#     66855
#     82297
#     96780
#     111065
#     125745
#     137230
#     149767
#     163135
#     177832
#     179117
#     192732
#     204225
#     215980
#     227612
#     240922
#     242580
#     255940
#     268442
#     268930
#     282465
#     295785
#     298555
#     310497
#     312120
# 
# Disc length: 4313
# 
# Revision: 1
# Processed by: cddbd v1.5.2PL0 Copyright (c) Steve Scherf et al.
# Submitted via: fre:ac v1.0.17
# 
DISCID=d410d71d
DTITLE=Charie Parker - The Complete Studio Recodings on Savoy Years Disc2
DYEAR=0
DGENRE=Jazz
TTITLE0=GROOVIN' HIGH
TTITLE1=ALL THE THINGS YOU ARE
TTITLE2=DIZZY ATMOSPHERE
TTITLE3=SALT PEANUTS
TTITLE4=SHAW 'NUFF
TTITLE5=LOVER MAN
TTITLE6=HOT HOUSE
TTITLE7=DIZZY'S BOOGIE
TTITLE8=DIZZY7S BOOGIE - alternate
TTITLE9=FLAT FOOT FLOOGIE
TTITLE10=FLAT FOOT FLOOGIE - alternate
TTITLE11=POPPITY
TTITLE12=SLIM'S JAM
TTITLE13=DONNA LEE - 1
TTITLE14=DONNA LEE - 2
TTITLE15=DONNA LEE - 3
TTITLE16=DONNA LEE - 4
TTITLE17=DONNA LEE - 5
TTITLE18=CHASIN' THE BIRD - 1
TTITLE19=CHASIN' THE BIRD - 2
TTITLE20=CHASIN' THE BIRD - 3
TTITLE21=CHASIN' THE BIRD - 4
TTITLE22=CHERYL - 1
TTITLE23=CHERYL - 2
TTITLE24=BUZZY - 1
TTITLE25=BUZZY - 2
TTITLE26=BUZZY - 3
TTITLE27=BUZZY - 4
TTITLE28=BUZZY - 5
EXTD=
EXTT0=
EXTT1=
EXTT2=
EXTT3=
EXTT4=
EXTT5=
EXTT6=
EXTT7=
EXTT8=
EXTT9=
EXTT10=
EXTT11=
EXTT12=
EXTT13=
EXTT14=
EXTT15=
EXTT16=
EXTT17=
EXTT18=
EXTT19=
EXTT20=
EXTT21=
EXTT22=
EXTT23=
EXTT24=
EXTT25=
EXTT26=
EXTT27=
EXTT28=
PLAYORDER=
